<svg width="13" height="13" viewBox="0 0 13 13" fill="none" xmlns="http://www.w3.org/2000/svg">
<path d="M5.66671 11C6.85003 10.9998 7.99924 10.6036 8.93137 9.87467L11.862 12.8053L12.8047 11.8627L9.87404 8.932C10.6034 7.99978 10.9998 6.85029 11 5.66667C11 2.726 8.60737 0.333336 5.66671 0.333336C2.72604 0.333336 0.333374 2.726 0.333374 5.66667C0.333374 8.60734 2.72604 11 5.66671 11ZM5.66671 1.66667C7.87271 1.66667 9.66671 3.46067 9.66671 5.66667C9.66671 7.87267 7.87271 9.66667 5.66671 9.66667C3.46071 9.66667 1.66671 7.87267 1.66671 5.66667C1.66671 3.46067 3.46071 1.66667 5.66671 1.66667Z" fill="black"/>
</svg>
